<?xml version="1.0" encoding="utf-8"?>
<!-- Generator: Adobe Illustrator 16.0.0, SVG Export Plug-In . SVG Version: 6.00 Build 0)  -->
<!DOCTYPE svg PUBLIC "-//W3C//DTD SVG 1.1//EN" "http://www.w3.org/Graphics/SVG/1.1/DTD/svg11.dtd">
<svg version="1.1" id="Layer_1" xmlns="http://www.w3.org/2000/svg" xmlns:xlink="http://www.w3.org/1999/xlink" x="0px" y="0px"
	 width="182px" height="324px" viewBox="0 0 182 324" enable-background="new 0 0 182 324" xml:space="preserve">
<path fill="#fff" d="M157.94,2.28c0,0,5.5-2,9.832-1c0,0,13.782,10.667,13.782,14.333
	c0,0,1.498,5.667-1,9.167L44.939,162.113c0,0,100.285,101.409,136.367,139.003c0,0,1.666,4.666-0.168,7.5
	c0,0,1.302,3.998-14.198,14.666c0,0-4.002,1.334-8.334-1c0,0-149.668-145.334-157-156.334c0,0-1.667-5.501,0-8.167L157.94,2.28z"/>
</svg>
